<?xml version="1.0" standalone="no"?>
<!DOCTYPE svg PUBLIC "-//W3C//DTD SVG 20010904//EN"
 "http://www.w3.org/TR/2001/REC-SVG-20010904/DTD/svg10.dtd">
<svg version="1.0" xmlns="http://www.w3.org/2000/svg"
 width="1024.000000pt" height="1024.000000pt" viewBox="0 0 1024.000000 1024.000000"
 preserveAspectRatio="xMidYMid meet">

<g transform="translate(0.000000,1024.000000) scale(0.100000,-0.100000)"
fill="#000000" stroke="none">
<path d="M5110 10204 c-58 -6 -211 -24 -340 -38 -129 -14 -269 -30 -310 -36
-41 -6 -158 -19 -260 -30 -102 -11 -201 -23 -220 -25 -19 -3 -114 -14 -210
-25 -96 -10 -276 -31 -400 -45 -124 -15 -241 -28 -260 -30 -38 -4 -273 -31
-565 -65 -99 -11 -202 -23 -230 -26 -27 -3 -68 -7 -90 -10 -67 -9 -368 -43
-600 -69 -121 -13 -236 -26 -255 -29 -19 -2 -62 -7 -95 -11 -223 -25 -395
-159 -453 -355 -6 -19 -14 -65 -18 -102 -7 -78 14 -174 54 -247 18 -33 307
-430 361 -497 5 -6 62 -83 127 -170 64 -87 157 -212 206 -277 48 -64 88 -122
88 -127 0 -6 4 -10 9 -10 5 0 20 -17 32 -37 13 -21 27 -42 31 -48 99 -128 200
-263 228 -305 8 -12 20 -28 25 -34 14 -15 106 -138 125 -166 8 -12 23 -32 32
-43 24 -30 28 -36 68 -92 19 -28 38 -54 42 -60 5 -5 25 -32 45 -60 21 -27 43
-57 50 -65 6 -8 50 -67 97 -130 47 -63 91 -123 98 -132 7 -9 20 -26 28 -38 12
-18 85 -116 122 -165 4 -5 47 -64 96 -130 324 -440 541 -725 576 -759 52 -48
163 -103 241 -117 123 -23 285 19 380 99 45 37 113 129 141 189 13 30 24 56
24 58 0 2 11 28 24 57 13 29 33 73 44 98 11 25 30 68 42 95 12 28 29 66 37 85
8 19 19 44 24 55 119 273 159 367 159 371 0 3 13 33 29 67 31 68 37 82 106
242 26 61 56 130 67 155 11 25 29 65 40 90 11 25 26 58 34 74 8 16 14 33 14
38 0 5 14 39 31 76 17 37 39 85 49 107 11 22 40 90 66 150 25 61 61 144 79
185 18 41 49 113 69 160 20 47 44 101 53 120 8 19 22 51 30 70 8 19 23 53 33
75 10 22 62 141 115 265 103 240 111 258 145 335 47 106 63 141 75 170 7 17
22 50 33 75 10 25 23 56 27 70 4 14 11 30 15 35 15 20 129 294 146 351 12 43
15 82 12 153 -4 85 -9 105 -42 171 -80 165 -221 258 -411 272 -33 3 -107 -1
-165 -8z m224 -380 c34 -30 46 -96 26 -146 -11 -28 -149 -345 -212 -488 -11
-25 -26 -60 -34 -77 -8 -18 -20 -48 -28 -65 -8 -18 -23 -53 -34 -78 -11 -25
-32 -74 -47 -110 -15 -36 -35 -83 -45 -105 -10 -22 -32 -74 -50 -115 -18 -41
-40 -93 -50 -115 -50 -114 -98 -224 -152 -350 -57 -132 -240 -553 -278 -640
-10 -22 -30 -69 -45 -105 -15 -36 -40 -93 -56 -128 -16 -35 -29 -65 -29 -67 0
-2 -16 -38 -35 -79 -19 -42 -35 -78 -35 -81 0 -2 -12 -30 -26 -62 -15 -32 -37
-82 -50 -111 -13 -29 -24 -55 -24 -57 0 -4 -182 -422 -200 -460 -6 -11 -43
-99 -84 -195 -41 -96 -85 -187 -98 -201 -30 -34 -108 -48 -143 -25 -13 9 -58
62 -99 118 -41 57 -93 126 -115 154 -23 28 -41 56 -41 62 0 6 -6 15 -14 19
-11 7 -80 98 -202 268 -18 24 -47 63 -66 87 -19 24 -43 56 -53 73 -10 16 -37
52 -59 81 -23 28 -49 62 -58 75 -9 13 -52 71 -95 130 -43 58 -90 123 -105 145
-15 21 -38 51 -50 66 -13 14 -30 36 -38 48 -8 12 -29 41 -46 64 -17 22 -91
122 -164 221 -73 99 -145 196 -161 215 -16 19 -41 53 -56 75 -14 22 -38 54
-52 71 -14 17 -33 41 -41 53 -16 25 -164 224 -410 556 -545 733 -512 685 -513
729 -2 51 22 91 66 111 18 8 196 32 397 55 660 74 793 89 1015 115 121 14 375
43 565 65 360 41 508 58 1000 115 162 19 419 48 570 65 151 17 302 35 335 39
33 5 89 9 125 9 56 1 69 -2 94 -24z"/>
<path d="M6460 9893 c-150 -14 -275 -87 -365 -212 -22 -31 -62 -108 -89 -171
-27 -63 -62 -143 -78 -178 -15 -34 -28 -65 -28 -67 0 -2 -11 -29 -25 -60 -14
-30 -36 -80 -50 -110 -14 -31 -25 -58 -25 -60 0 -2 -12 -30 -26 -62 -65 -143
-204 -463 -204 -468 0 -3 -11 -28 -24 -57 -52 -116 -119 -268 -198 -453 -58
-136 -74 -171 -124 -283 -13 -29 -24 -55 -24 -57 0 -2 -12 -30 -26 -62 -14
-32 -32 -71 -40 -88 -7 -16 -50 -115 -95 -220 -79 -186 -97 -226 -145 -333
-13 -29 -24 -55 -24 -57 0 -2 -11 -28 -24 -57 -45 -101 -64 -144 -121 -278
-31 -74 -66 -154 -76 -177 -10 -24 -29 -64 -40 -90 -12 -27 -32 -72 -45 -101
-13 -29 -24 -55 -24 -57 0 -2 -11 -28 -24 -57 -13 -29 -33 -74 -45 -100 -25
-56 -51 -173 -51 -231 1 -157 88 -309 234 -407 81 -54 209 -78 326 -61 41 6
140 18 220 26 80 9 177 20 215 25 39 5 138 16 220 25 83 9 188 20 235 26 47 6
101 12 120 15 19 2 51 6 70 9 19 3 62 7 95 10 33 3 78 8 100 11 22 3 56 7 75
9 48 4 299 32 440 50 151 18 216 26 265 30 22 2 69 7 105 10 36 3 90 10 120
15 30 5 78 11 105 14 28 3 118 12 200 22 83 9 161 18 175 19 14 2 66 7 115 13
50 6 117 14 150 18 33 4 71 8 85 10 59 7 480 55 650 74 102 11 208 25 237 31
80 16 172 67 234 129 102 102 147 229 136 382 -9 108 -39 171 -164 340 -110
149 -272 367 -602 812 -123 165 -254 342 -291 391 -37 50 -145 196 -242 325
-96 129 -279 377 -408 550 -236 319 -509 686 -699 942 -117 158 -177 210 -288
251 -70 26 -133 36 -193 30z m75 -370 c29 -14 88 -87 278 -343 133 -179 271
-364 307 -412 36 -49 99 -134 141 -190 407 -549 664 -895 689 -928 11 -14 92
-124 182 -245 90 -122 226 -306 303 -409 271 -365 491 -661 523 -705 65 -91
24 -193 -83 -206 -22 -2 -82 -9 -132 -15 -339 -37 -609 -68 -658 -75 -22 -3
-123 -14 -225 -25 -102 -11 -219 -25 -260 -30 -41 -5 -100 -12 -130 -15 -30
-3 -147 -16 -260 -30 -113 -13 -272 -32 -355 -41 -82 -9 -161 -18 -175 -19
-14 -2 -108 -12 -210 -24 -102 -11 -205 -23 -230 -26 -25 -3 -63 -8 -85 -10
-22 -3 -60 -7 -85 -10 -25 -3 -65 -7 -90 -9 -25 -3 -61 -7 -80 -10 -19 -4 -53
-8 -75 -10 -22 -3 -146 -16 -275 -31 -129 -14 -271 -30 -315 -35 -44 -5 -142
-16 -218 -24 -122 -14 -141 -15 -167 -1 -37 19 -70 66 -70 101 0 15 36 111 81
213 45 102 110 254 146 336 72 167 156 359 183 420 10 22 62 141 115 265 92
214 176 408 215 495 10 22 38 87 63 145 45 106 107 249 198 458 94 216 147
338 214 492 37 85 75 173 85 195 10 22 32 74 50 115 18 41 40 93 50 115 15 35
46 106 178 410 37 85 52 106 87 121 40 17 48 17 90 -3z"/>
<path d="M4820 4960 c-113 -21 -170 -50 -258 -134 -81 -76 -141 -219 -142
-333 0 -58 26 -175 51 -231 12 -26 32 -71 45 -100 13 -29 24 -55 24 -57 0 -2
11 -28 24 -57 13 -29 33 -73 44 -98 11 -25 29 -65 40 -90 11 -25 46 -106 77
-180 57 -134 76 -177 121 -278 13 -29 24 -55 24 -57 0 -2 11 -28 24 -57 48
-107 66 -147 145 -333 45 -104 88 -203 95 -220 8 -16 26 -56 40 -88 14 -32 26
-60 26 -62 0 -2 11 -28 24 -57 50 -112 66 -147 124 -283 79 -185 146 -337 198
-453 13 -29 24 -54 24 -57 0 -5 139 -325 204 -468 14 -32 26 -60 26 -62 0 -2
11 -28 24 -57 13 -29 35 -79 50 -111 14 -32 26 -60 26 -62 0 -2 13 -33 28 -67
16 -35 51 -115 78 -178 55 -130 106 -207 178 -269 127 -110 314 -144 465 -86
116 44 174 95 292 253 190 256 463 623 699 942 129 173 312 421 408 550 97
129 205 276 242 325 37 50 168 226 291 391 330 445 492 663 602 812 125 169
155 232 164 340 11 153 -34 280 -136 382 -62 62 -154 113 -234 129 -29 6 -135
20 -237 31 -170 19 -591 67 -650 74 -14 2 -52 6 -85 10 -33 4 -100 12 -150 18
-49 6 -101 11 -115 13 -14 1 -92 10 -175 19 -82 10 -172 19 -200 22 -27 3 -75
9 -105 14 -30 5 -84 12 -120 15 -36 3 -83 8 -105 10 -49 4 -114 12 -265 30
-136 17 -391 46 -439 51 -19 1 -55 5 -80 9 -25 3 -68 8 -96 10 -27 3 -70 7
-95 10 -25 4 -57 8 -70 9 -145 18 -237 29 -355 41 -77 8 -176 19 -220 25 -379
49 -531 62 -595 50z m285 -375 c77 -8 174 -20 215 -25 63 -8 359 -41 505 -56
22 -2 56 -6 75 -10 19 -3 55 -7 80 -10 25 -2 65 -6 90 -9 25 -3 65 -8 90 -10
25 -3 63 -8 85 -11 22 -2 123 -14 225 -25 102 -12 196 -22 210 -24 14 -1 93
-10 175 -19 83 -9 242 -28 355 -41 113 -14 230 -27 260 -30 30 -3 89 -10 130
-15 41 -5 158 -19 260 -30 102 -11 203 -22 225 -25 49 -7 319 -38 658 -75 50
-6 110 -13 132 -15 107 -13 148 -115 83 -206 -32 -44 -252 -340 -523 -705 -77
-103 -213 -287 -303 -409 -90 -121 -171 -231 -182 -245 -29 -39 -278 -373
-654 -880 -55 -74 -177 -238 -271 -365 -94 -126 -235 -316 -313 -421 -115
-155 -148 -194 -181 -208 -33 -15 -45 -16 -75 -6 -41 13 -61 39 -98 125 -51
117 -161 371 -178 410 -10 22 -32 74 -50 115 -18 41 -40 93 -50 115 -10 22
-48 110 -85 195 -67 154 -120 276 -214 492 -91 209 -153 352 -198 458 -25 58
-53 123 -63 145 -39 87 -123 281 -215 495 -53 124 -105 243 -115 265 -27 61
-111 253 -183 420 -36 83 -101 234 -146 336 -45 102 -81 198 -81 213 0 65 69
120 140 112 25 -3 108 -12 185 -21z"/>
<path d="M3571 4640 c-66 -14 -180 -73 -227 -116 -35 -34 -252 -319 -576 -759
-49 -66 -92 -124 -96 -130 -4 -5 -31 -41 -60 -80 -29 -38 -58 -78 -64 -87 -7
-9 -20 -26 -28 -38 -19 -26 -177 -240 -193 -260 -7 -8 -29 -37 -50 -65 -20
-27 -40 -54 -45 -60 -4 -5 -23 -32 -42 -60 -40 -56 -44 -62 -68 -92 -9 -11
-24 -31 -32 -43 -19 -28 -111 -151 -125 -166 -5 -6 -17 -22 -25 -34 -28 -42
-129 -177 -228 -305 -4 -5 -18 -27 -31 -47 -12 -21 -27 -38 -32 -38 -5 0 -9
-4 -9 -10 0 -5 -40 -63 -88 -127 -49 -65 -142 -190 -206 -277 -65 -87 -122
-164 -127 -170 -54 -67 -343 -464 -361 -497 -97 -175 -62 -405 82 -549 88 -88
201 -140 335 -155 33 -4 76 -9 95 -11 19 -3 134 -16 255 -29 232 -26 533 -60
600 -69 22 -3 63 -7 90 -10 28 -3 131 -15 230 -26 292 -34 527 -61 565 -65 19
-2 136 -15 260 -30 124 -14 304 -35 400 -45 96 -11 191 -22 210 -25 19 -2 118
-14 220 -25 102 -11 219 -24 260 -30 41 -6 181 -22 310 -36 129 -14 286 -31
348 -39 156 -17 272 -2 361 47 97 54 159 119 207 218 33 66 38 86 42 171 3 71
0 110 -12 153 -16 56 -117 297 -150 361 -9 17 -16 33 -16 38 0 4 -10 29 -21
55 -12 26 -27 61 -34 77 -7 17 -23 53 -35 80 -74 166 -71 160 -185 425 -53
124 -105 243 -115 265 -10 22 -26 58 -35 80 -10 22 -23 54 -31 70 -7 17 -30
68 -50 115 -20 47 -51 119 -69 160 -18 41 -54 125 -79 185 -26 61 -55 128 -66
150 -10 22 -32 70 -49 107 -17 37 -31 71 -31 76 0 5 -6 22 -14 38 -8 16 -23
49 -34 74 -11 25 -29 65 -40 90 -11 25 -41 95 -67 155 -69 160 -75 174 -106
242 -16 34 -29 64 -29 67 0 4 -40 98 -159 371 -5 11 -16 36 -24 55 -21 50 -83
189 -123 278 -13 29 -24 55 -24 57 0 18 -57 121 -92 167 -67 86 -122 125 -230
163 -55 19 -180 27 -237 15z m165 -375 c24 -15 31 -28 114 -225 34 -80 68
-158 75 -175 38 -81 205 -466 205 -470 0 -2 11 -29 25 -60 14 -30 36 -80 50
-110 14 -31 25 -58 25 -60 0 -2 13 -33 29 -67 15 -35 56 -128 91 -208 34 -80
70 -163 80 -185 57 -130 227 -521 278 -640 54 -126 102 -236 152 -350 10 -22
32 -74 50 -115 18 -41 40 -93 50 -115 10 -22 30 -69 45 -105 15 -36 36 -85 47
-110 21 -47 42 -95 63 -145 7 -16 22 -50 33 -75 63 -143 201 -460 212 -488 20
-50 8 -116 -26 -146 -35 -31 -76 -33 -249 -11 -66 8 -239 28 -385 44 -146 17
-404 46 -575 66 -551 63 -908 104 -1222 140 -170 19 -364 42 -433 50 -69 8
-204 24 -300 35 -764 85 -909 103 -937 115 -44 20 -68 60 -66 111 1 44 -32 -4
513 729 226 305 393 530 410 555 22 31 93 127 135 180 19 25 96 128 171 230
75 102 151 204 168 226 17 23 38 52 46 64 8 12 25 34 38 48 12 15 35 45 50 66
15 22 62 87 105 145 43 59 86 117 95 130 9 13 35 47 58 75 22 29 49 65 59 81
10 17 34 49 53 73 19 24 48 63 66 87 122 170 191 261 202 268 8 4 14 13 14 19
0 6 19 35 43 64 23 29 73 96 111 149 90 125 107 139 166 130 25 -4 54 -13 66
-20z"/>
</g>
</svg>
